<?xml version="1.0" encoding="UTF-8"?>
<!DOCTYPE svg PUBLIC "-//W3C//DTD SVG 1.1//EN" "http://www.w3.org/Graphics/SVG/1.1/DTD/svg11.dtd">
<!-- Creator: CorelDRAW 2021 (64-Bit) -->
<svg xmlns="http://www.w3.org/2000/svg" xml:space="preserve" width="62.8565mm" height="39.3027mm" version="1.1" style="shape-rendering:geometricPrecision; text-rendering:geometricPrecision; image-rendering:optimizeQuality; fill-rule:evenodd; clip-rule:evenodd"
viewBox="0 0 2691.68 1683.04"
 xmlns:xlink="http://www.w3.org/1999/xlink"
 xmlns:xodm="http://www.corel.com/coreldraw/odm/2003">
 <defs>
  <style type="text/css">
   <![CDATA[
    .fil0 {fill:black}
    .fil1 {fill:black;fill-rule:nonzero}
   ]]>
  </style>
 </defs>
 <g id="Layer_x0020_1">
  <metadata id="CorelCorpID_0Corel-Layer"/>
  <path class="fil0" d="M2474.8 0c-18.63,83.41 -119.63,148.01 -194.32,173.74 -246.17,84.81 -542.8,-18.43 -796.46,-30.46 -162.91,-7.73 -226.26,52.29 -338.49,158.35 -64.12,60.71 -58.27,79.17 -34.28,162.81 58.29,203.62 115.68,414.5 167.64,619.78 3.11,12.28 8.8,43.02 15.49,52.42 5.37,-5.67 14.39,-34.49 29.44,-53.16 107.82,-128.89 288.88,-176.64 451.29,-160.36 229.72,23.03 449.5,116.15 686.96,51.77 104.09,-28.22 183.67,-80.47 229.59,-178.95l-216.87 -795.94zm-1114.26 634.05c-11.14,-63.12 22.28,-119.92 77.25,-136.73 53.79,-16.44 114.6,6.01 133.35,68 -72.31,15.19 -142.51,38.18 -210.59,68.73zm379.46 -5.12c-21.57,-82.87 -60.3,-147.43 -116.15,-188.39 -54.25,-39.8 -125.47,-56.53 -205.94,-33.88 -80.75,22.74 -135.94,77.12 -162.67,142.33 -28.7,70.03 -29.88,148.02 -11.98,214.71 21,78.24 54.74,118.11 103.04,129.09 49.99,11.37 112.42,-10.01 198.89,-39.32 109.26,-37.03 189.31,-83.84 201.29,-168.25 -51.17,-1.54 -100.93,1.62 -149.84,8.77 -2.25,30.87 -37.73,56.19 -81.05,72.38 -66.3,24.78 -118.4,6.26 -139.55,-57.35 56.67,-27.62 114.35,-52.41 174.79,-66.05 60.62,-13.68 124.33,-16.01 189.17,-14.05zm255.56 217.64c-24.95,-94.07 -49.25,-188.14 -73.16,-282.38 -23.88,-94.14 -47.79,-188.31 -72.88,-282.47 -54.13,-17.95 -107.27,-31.03 -159.28,-39.32 25.51,95.7 50.54,191.63 75.27,287.43 24.74,95.84 49.48,191.64 74.85,287.42 51.88,10.8 103.61,20.72 155.2,29.33zm552.14 -50.04c-20.3,-74.09 -40.09,-148.18 -58.36,-222.67 -18.23,-74.34 -35.38,-148.92 -52.72,-223.49 -42.15,28.11 -85.56,51.18 -129.68,69.87 9.73,41.51 19.67,83.09 29.6,124.62 9.94,41.58 20.14,83.04 30.59,124.46 14.36,56.95 -12.25,108.74 -84.72,115.12 -61.41,5.4 -100,-22 -113.05,-73.28 -10.63,-41.82 -21.28,-83.81 -31.57,-125.76 -10.28,-41.88 -20.58,-84 -30.73,-126 -49.48,0.16 -99.8,-3.01 -151.11,-10.48 11.13,44.76 22.33,89.35 33.55,134.04 11.19,44.59 22.68,89.21 34.25,133.88 11.54,44.52 41.17,84.62 82.6,113.81 40.89,28.82 93.45,47.85 149.13,46.96 76.32,-1.22 126.16,-32.01 149.56,-88.23 5.22,20.23 10.85,40.38 16.49,60.53 43.41,-11.94 85.56,-29 126.16,-53.37z"/>
  <path class="fil0" d="M1452.03 1654.07l-367.96 -1373.24c-3.28,-12.23 -15.96,-19.55 -28.19,-16.27l0 0c-12.23,3.28 -19.55,15.96 -16.27,28.19l367.96 1373.24c3.28,12.23 15.96,19.55 28.19,16.27l0 0c12.23,-3.28 19.55,-15.96 16.27,-28.19z"/>
  <path class="fil1" d="M126.6 997.68l0 -654.41 -126.6 0 0 654.41 126.6 0zm343.75 -182.1c-0.97,56.48 -49.67,104.2 -114.91,104.2 -39.93,0 -61.35,-17.53 -61.35,-53.56 0,-40.9 23.37,-61.35 95.43,-74.98 46.75,-8.77 69.14,-15.58 81.8,-28.24l-0.98 52.59zm127.57 182.1l0 -302.86c0,-120.75 -52.59,-188.92 -204.5,-188.92 -153.87,0 -208.4,69.14 -210.34,168.47l117.83 0c5.85,-42.85 29.21,-71.09 86.67,-71.09 49.66,0 80.82,18.5 80.82,49.67 0,33.11 -17.53,45.77 -80.82,54.53 -127.57,17.53 -220.09,33.11 -220.09,171.39 0,77.91 50.64,131.47 159.71,131.47 64.27,0 114.91,-22.4 145.1,-55.51 0.97,14.61 3.9,31.16 7.79,42.85l117.83 0zm282.41 -90.57c-60.38,0 -107.12,-56.48 -107.12,-137.31 0,-104.2 36.03,-155.81 106.14,-155.81 74.01,0 109.07,49.67 109.07,148.02 0,85.7 -44.8,145.1 -108.09,145.1zm-105.17 90.57l0.97 -58.43c30.19,48.69 74.98,71.09 133.41,71.09 120.76,0 207.42,-95.43 207.42,-257.09 0,-145.1 -73.04,-247.35 -196.71,-247.35 -59.4,0 -106.14,24.34 -142.18,74.98l0 -237.61 -124.65 0 0 654.41 121.73 0z"/>
 </g>
</svg>
